# xmcd CD database file
#
# Track frame offsets:
#	150
#	23661
#	49993
#	63316
#	88864
#	119584
#	147170
#	174599
#	201871
#	226322
#	247795
#	271619
#	291681
#
# Disc length: 4210 seconds
#
# Revision: 0
# Processed by: cddbd v1.5.2PL0 Copyright (c) Steve Scherf et al.
# Submitted via: CDex 1.70beta2
#
DISCID=bc10700d
DTITLE=Dee Dee Bridgewater - Red Earth
DYEAR=2007
DGENRE=Jazz
TTITLE0=Afro Blue
TTITLE1=Bad Spirits (Bani)
TTITLE2=Dee Dee
TTITLE3=Mama Don't Ever Go Away
TTITLE4=Long Time Ago
TTITLE5=Children Go 'Round
TTITLE6=The Griots (Sakhodougou)
TTITLE7=Oh My Love (Djarabi)
TTITLE8=Four Women
TTITLE9=No More (Bambo)
TTITLE10=Red Earth (Massane Cissé)
TTITLE11=Meanwhile 
TTITLE12=Compared to What
EXTD=YEAR: 2007
EXTT0=
EXTT1=
EXTT2=
EXTT3=
EXTT4=
EXTT5=
EXTT6=
EXTT7=
EXTT8=
EXTT9=
EXTT10=
EXTT11=
EXTT12=
PLAYORDER=
